<svg width="1646" height="482" viewBox="0 0 1646 482" fill="none" xmlns="http://www.w3.org/2000/svg">
<path d="M191.739 3L238.261 3L429 389L381 389L296.5 241L244.5 162L216.163 82.1677L220.815 84.6522H209.185L213.837 82.1677L96 317L47.5 389L1 389L191.739 3Z" fill="black"/>
<path d="M502 86H626.932C652.179 86 671.913 93.1077 686.133 107.323C700.643 121.538 707.898 140.541 707.898 164.33C707.898 175.644 706.302 185.218 703.109 193.051C699.917 200.884 695.854 207.411 690.921 212.633C685.988 217.565 680.619 221.336 674.815 223.947C669.011 226.268 663.642 227.864 658.709 228.734V231.345C664.222 231.635 670.317 233.086 676.991 235.697C683.956 238.308 690.486 242.514 696.58 248.316C702.674 253.829 707.753 261.081 711.815 270.075C716.168 278.778 718.345 289.367 718.345 301.842C718.345 314.316 716.314 325.921 712.251 336.655C708.478 347.389 703.109 356.673 696.145 364.505C689.18 372.338 680.909 378.576 671.332 383.218C661.756 387.569 651.308 389.745 639.991 389.745H502V86ZM538.565 357.543H628.673C644.344 357.543 656.677 353.626 665.673 345.793C674.67 337.67 679.168 325.921 679.168 310.545V295.749C679.168 280.374 674.67 268.769 665.673 260.936C656.677 252.813 644.344 248.752 628.673 248.752H538.565V357.543ZM538.565 217.42H622.579C637.089 217.42 648.406 213.793 656.532 206.541C664.658 199.288 668.721 188.844 668.721 175.209V160.413C668.721 146.778 664.658 136.334 656.532 129.081C648.406 121.829 637.089 118.202 622.579 118.202H538.565V217.42Z" fill="black"/>
<path d="M846.953 394.967C831.572 394.967 817.642 392.211 805.164 386.699C792.975 381.187 782.383 373.354 773.387 363.2C764.681 352.756 757.861 340.426 752.928 326.211C748.284 311.705 745.963 295.459 745.963 277.473C745.963 259.776 748.284 243.675 752.928 229.169C757.861 214.664 764.681 202.334 773.387 192.18C782.383 181.736 792.975 173.758 805.164 168.246C817.642 162.734 831.572 159.978 846.953 159.978C862.043 159.978 875.538 162.734 887.436 168.246C899.334 173.758 909.491 181.446 917.907 191.31C926.323 200.884 932.707 212.343 937.06 225.688C941.703 239.033 944.025 253.684 944.025 269.64V286.176H782.528V296.62C782.528 306.193 783.979 315.187 786.881 323.6C790.073 331.723 794.426 338.831 799.94 344.923C805.744 351.015 812.709 355.802 820.835 359.284C829.25 362.765 838.682 364.505 849.129 364.505C863.349 364.505 875.683 361.169 886.13 354.497C896.867 347.824 905.138 338.251 910.942 325.776L935.754 343.618C928.499 358.993 917.181 371.468 901.801 381.042C886.42 390.325 868.137 394.967 846.953 394.967ZM846.953 189.134C837.376 189.134 828.67 190.875 820.835 194.356C812.999 197.547 806.18 202.189 800.375 208.281C794.862 214.374 790.509 221.626 787.316 230.04C784.124 238.163 782.528 247.156 782.528 257.02V260.066H906.589V255.279C906.589 235.262 901.075 219.305 890.048 207.411C879.31 195.226 864.945 189.134 846.953 189.134Z" fill="black"/>
<path d="M974.204 389.745V165.2H1009.03V206.541H1011.2C1015.27 195.807 1022.52 186.233 1032.97 177.82C1043.42 169.407 1057.78 165.2 1076.06 165.2H1089.56V200.013H1069.1C1050.24 200.013 1035.44 203.64 1024.7 210.892C1014.25 217.855 1009.03 226.703 1009.03 237.437V389.745H974.204Z" fill="black"/>
<path d="M1306.39 414.549C1306.39 437.758 1297.25 454.73 1278.97 465.464C1260.98 476.488 1233.84 482 1197.57 482C1162.45 482 1137.21 477.213 1121.83 467.64C1106.44 458.066 1098.75 444.431 1098.75 426.734C1098.75 414.549 1101.95 404.976 1108.33 398.013C1114.72 391.341 1123.42 386.409 1134.45 383.218V378.431C1121.1 372.048 1114.43 361.604 1114.43 347.099C1114.43 335.785 1118.05 327.226 1125.31 321.424C1132.56 315.332 1141.85 310.835 1153.17 307.934V306.193C1139.82 299.811 1129.37 290.673 1121.83 278.778C1114.57 266.884 1110.94 253.103 1110.94 237.437C1110.94 226.123 1112.97 215.679 1117.04 206.105C1121.1 196.532 1126.76 188.409 1134.01 181.736C1141.56 174.774 1150.41 169.407 1160.57 165.635C1171.01 161.864 1182.62 159.978 1195.39 159.978C1211.35 159.978 1225.57 162.879 1238.05 168.681V164.765C1238.05 156.062 1240.08 148.954 1244.15 143.442C1248.21 137.64 1254.88 134.738 1264.17 134.738H1297.69V165.2H1255.03V179.56C1263.15 186.523 1269.39 194.936 1273.75 204.8C1278.39 214.374 1280.71 225.253 1280.71 237.437C1280.71 248.752 1278.68 259.196 1274.62 268.769C1270.55 278.343 1264.75 286.611 1257.2 293.574C1249.95 300.246 1241.1 305.468 1230.65 309.24C1220.2 313.011 1208.6 314.897 1195.83 314.897C1188.57 314.897 1181.32 314.171 1174.06 312.721C1166.52 314.752 1159.7 317.798 1153.6 321.859C1147.51 325.631 1144.46 330.998 1144.46 337.96C1144.46 344.633 1147.65 349.13 1154.04 351.451C1160.42 353.771 1168.69 354.932 1178.85 354.932H1226.73C1254.59 354.932 1274.76 360.299 1287.24 371.033C1300.01 381.477 1306.39 395.982 1306.39 414.549ZM1273.75 417.16C1273.75 408.167 1270.26 400.914 1263.3 395.402C1256.62 390.18 1244.58 387.569 1227.17 387.569H1152.3C1138.37 393.952 1131.4 404.105 1131.4 418.031C1131.4 427.895 1135.03 436.308 1142.28 443.27C1149.83 450.233 1162.45 453.714 1180.16 453.714H1212.37C1231.81 453.714 1246.9 450.668 1257.64 444.576C1268.38 438.484 1273.75 429.345 1273.75 417.16ZM1195.83 287.046C1210.63 287.046 1222.38 283.565 1231.09 276.602C1239.79 269.349 1244.15 258.325 1244.15 243.53V231.345C1244.15 216.549 1239.79 205.67 1231.09 198.708C1222.38 191.455 1210.63 187.829 1195.83 187.829C1181.03 187.829 1169.27 191.455 1160.57 198.708C1151.86 205.67 1147.51 216.549 1147.51 231.345V243.53C1147.51 258.325 1151.86 269.349 1160.57 276.602C1169.27 283.565 1181.03 287.046 1195.83 287.046Z" fill="black"/>
<path d="M1415.31 394.967C1399.93 394.967 1386 392.211 1373.52 386.699C1361.33 381.187 1350.74 373.354 1341.74 363.2C1333.04 352.756 1326.22 340.426 1321.29 326.211C1316.64 311.705 1314.32 295.459 1314.32 277.473C1314.32 259.776 1316.64 243.675 1321.29 229.169C1326.22 214.664 1333.04 202.334 1341.74 192.18C1350.74 181.736 1361.33 173.758 1373.52 168.246C1386 162.734 1399.93 159.978 1415.31 159.978C1430.4 159.978 1443.9 162.734 1455.79 168.246C1467.69 173.758 1477.85 181.446 1486.26 191.31C1494.68 200.884 1501.07 212.343 1505.42 225.688C1510.06 239.033 1512.38 253.684 1512.38 269.64V286.176H1350.89V296.62C1350.89 306.193 1352.34 315.187 1355.24 323.6C1358.43 331.723 1362.78 338.831 1368.3 344.923C1374.1 351.015 1381.07 355.802 1389.19 359.284C1397.61 362.765 1407.04 364.505 1417.49 364.505C1431.71 364.505 1444.04 361.169 1454.49 354.497C1465.23 347.824 1473.5 338.251 1479.3 325.776L1504.11 343.618C1496.86 358.993 1485.54 371.468 1470.16 381.042C1454.78 390.325 1436.5 394.967 1415.31 394.967ZM1415.31 189.134C1405.73 189.134 1397.03 190.875 1389.19 194.356C1381.36 197.547 1374.54 202.189 1368.73 208.281C1363.22 214.374 1358.87 221.626 1355.67 230.04C1352.48 238.163 1350.89 247.156 1350.89 257.02V260.066H1474.95V255.279C1474.95 235.262 1469.43 219.305 1458.41 207.411C1447.67 195.226 1433.3 189.134 1415.31 189.134Z" fill="black"/>
<path d="M1598.99 389.745C1586.8 389.745 1577.51 386.409 1571.13 379.736C1565.03 372.774 1561.99 363.78 1561.99 352.756V195.662H1524.99V165.2H1545.88C1553.43 165.2 1558.5 163.749 1561.12 160.848C1564.02 157.657 1565.47 152.29 1565.47 144.747V102.971H1596.81V165.2H1646V195.662H1596.81V359.284H1642.52V389.745H1598.99Z" fill="black"/>
</svg>
