<svg width="800" height="200" viewBox="0 0 800 200" fill="none" xmlns="http://www.w3.org/2000/svg">
  <path d="M100 10L130 10L230 180L200 180L160 110L130 70L115 40L117 41H113L115 40L60 150L40 180L10 180L100 10Z" fill="black"/>
  <path d="M280 50H310V70H280V50ZM280 90H310V170H280V90Z" fill="black"/>
  <path d="M340 90H370V100C375 93 385 88 395 88C420 88 430 103 430 128V170H400V133C400 118 395 113 385 113C375 113 370 118 370 133V170H340V90Z" fill="black"/>
  <path d="M450 130C450 105 470 88 495 88C520 88 540 105 540 130C540 155 520 172 495 172C470 172 450 155 450 130ZM510 130C510 118 505 110 495 110C485 110 480 118 480 130C480 142 485 150 495 150C505 150 510 142 510 130Z" fill="black"/>
  <path d="M550 90H580V100C585 93 595 88 605 88C630 88 640 103 640 128V170H610V133C610 118 605 113 595 113C585 113 580 118 580 133V170H550V90Z" fill="black"/>
  <path d="M650 130C650 105 670 88 695 88C720 88 740 105 740 130C740 155 720 172 695 172C670 172 650 155 650 130ZM710 130C710 118 705 110 695 110C685 110 680 118 680 130C680 142 685 150 695 150C705 150 710 142 710 130Z" fill="black"/>
  <path d="M750 90H780V170H750V90ZM750 50H780V80H750V50Z" fill="black"/>
</svg>
